<svg xmlns="http://www.w3.org/2000/svg" viewBox="0 0 800 800">
  <rect width="800" height="800" rx="150" ry="150" fill="#000000" />
  <path fill="#ffffff" d="M245 225h76v260c0 83-50 126-126 126-59 0-103-25-129-68l48-51c19 34 45 54 78 54 34 0 53-20 53-66V225Z" />
  <path fill="#ffffff" d="M417 225h160c72 0 111 38 111 94 0 33-16 60-47 75 39 14 59 45 59 88 0 73-51 124-137 124H417V225Zm142 152c37 0 57-18 57-49 0-30-20-46-57-46h-67v95h67Zm12 171c43 0 66-22 66-59 0-36-23-56-66-56h-79v115h79Z" />
</svg>